<svg xmlns="http://www.w3.org/2000/svg"
     width="700.000000pt" height="700.000000pt" viewBox="0 0 700.000000 700.000000"
     preserveAspectRatio="xMidYMid meet">
    <g transform="translate(0.000000,700.000000) scale(0.100000,-0.100000)" stroke="none">
        <path d="M2677 6552 l-349 -348 140 -140 141 -140 -65 -68 c-36 -37 -64 -72
-62 -77 6 -18 3396 -3425 3540 -3558 l37 -34 350 350 350 349 -141 142 -142
141 65 66 c35 36 66 71 68 76 2 8 -3267 3283 -3535 3541 l-49 47 -348 -347z"/>
        <path d="M1675 5550 l-349 -350 127 -128 c70 -71 129 -127 130 -125 2 2 4 -8
3 -23 -1 -17 -21 -45 -65 -89 l-64 -63 459 -461 c252 -254 509 -511 569 -572
61 -60 663 -661 1338 -1336 l1228 -1225 351 351 352 352 -25 25 c-13 13 -41
40 -61 60 -20 20 -72 70 -115 112 -43 43 -82 76 -87 74 -6 -2 19 27 55 63 35
37 70 74 78 82 14 15 6 28 -64 97 -16 16 -29 33 -28 38 2 4 -2 8 -7 8 -15 0
-100 82 -100 97 0 6 -5 15 -12 19 -7 5 -8 2 -3 -7 4 -8 -1 -5 -12 6 -11 11
-19 23 -16 28 2 4 -3 7 -11 7 -8 0 -18 5 -22 12 -5 7 -3 8 7 2 8 -4 -10 17
-40 48 -30 31 -58 55 -63 52 -4 -3 -8 -1 -8 5 0 5 -19 29 -41 53 -23 23 -39
37 -35 31 4 -7 5 -13 1 -13 -3 0 -10 12 -15 26 -6 14 -14 22 -20 19 -5 -3 -10
-1 -10 5 0 13 -109 120 -122 120 -4 0 -8 7 -8 15 0 8 -3 15 -7 15 -5 1 -21 12
-38 26 -16 15 -24 23 -16 19 9 -6 12 -4 7 3 -4 7 -14 12 -22 12 -8 0 -13 4
-10 9 3 4 -6 13 -20 20 -14 6 -22 16 -19 21 3 6 1 10 -6 10 -15 0 -459 447
-459 462 0 6 -3 9 -6 5 -3 -3 -20 9 -36 26 -130 136 -231 237 -239 237 -5 0
-9 4 -9 9 0 11 -200 211 -211 211 -5 0 -9 5 -9 10 0 15 -47 60 -54 53 -3 -4
-6 -2 -6 4 0 14 -228 242 -235 235 -3 -3 -5 0 -5 5 0 15 -137 152 -144 145 -3
-3 -6 0 -6 6 0 15 -397 412 -404 404 -4 -3 -6 -1 -6 5 0 14 -238 253 -252 253
-6 0 -9 3 -6 6 6 6 -44 63 -52 59 -3 -1 -14 7 -25 18 -11 11 -13 16 -5 12 8
-4 -5 11 -29 33 -24 23 -49 42 -54 42 -6 0 -8 2 -5 5 6 7 -71 85 -84 85 -4 0
-8 4 -8 9 0 11 -209 219 -214 213 -2 -2 -7 6 -11 17 -3 12 -10 21 -14 21 -5 0
-55 47 -113 105 -58 58 -107 105 -109 105 -2 0 -161 -157 -354 -350z m3586
-2877 c13 -16 12 -17 -3 -4 -10 7 -18 15 -18 17 0 8 8 3 21 -13z"/>
        <path d="M945 4826 c-30 -30 -55 -59 -55 -65 0 -5 -5 -13 -12 -17 -7 -5 -8 -3
-3 7 5 8 -7 -1 -28 -20 -20 -19 -33 -39 -30 -44 3 -6 2 -7 -4 -4 -5 3 -17 -3
-26 -14 -9 -10 -13 -19 -9 -19 4 0 -6 -8 -23 -18 -16 -11 -37 -27 -45 -37 -12
-15 -12 -17 -1 -10 10 5 12 4 7 -3 -4 -7 -14 -12 -22 -12 -8 0 -12 -4 -9 -10
3 -5 -1 -10 -10 -10 -9 0 -14 -3 -12 -7 4 -10 -40 -53 -47 -45 -3 3 -6 0 -6
-7 0 -15 -114 -131 -129 -131 -6 0 -10 -3 -9 -7 4 -12 -35 -53 -44 -47 -5 3
-7 1 -6 -3 2 -5 -21 -34 -49 -63 -29 -30 -53 -57 -53 -61 0 -3 19 -24 42 -46
24 -22 73 -72 110 -110 37 -39 70 -68 73 -65 3 3 5 0 5 -7 0 -7 10 -21 22 -31
l22 -17 -79 -76 c-79 -75 -79 -76 -61 -96 10 -11 23 -18 29 -14 5 3 7 2 4 -3
-7 -11 131 -150 145 -146 5 1 7 -1 4 -6 -7 -12 40 -53 50 -44 4 4 4 2 1 -4 -8
-14 36 -57 47 -47 4 5 6 3 4 -3 -4 -14 73 -95 84 -88 5 3 7 1 6 -4 -4 -13 128
-143 137 -134 3 4 5 2 3 -4 -3 -13 282 -300 294 -296 4 1 7 -2 6 -6 -4 -10 54
-68 64 -64 4 1 7 -2 6 -6 -4 -11 108 -122 121 -122 6 0 10 -4 9 -8 -2 -4 301
-310 672 -680 371 -370 777 -775 903 -899 125 -125 227 -230 227 -234 0 -4 9
-11 20 -14 11 -3 20 -14 20 -22 0 -9 2 -14 5 -12 2 3 155 -144 338 -325 183
-182 345 -342 359 -354 l26 -24 346 345 c190 189 346 348 346 352 0 5 -62 70
-139 144 -76 75 -136 142 -134 149 3 6 8 10 11 8 4 -2 13 2 20 10 7 8 10 14 7
14 -3 0 18 22 47 50 l52 50 -34 36 c-19 19 -734 736 -1588 1592 -854 856
-1604 1609 -1667 1672 -233 234 -290 290 -297 290 -4 0 -32 -24 -63 -54z
m-324 -953 c13 -16 12 -17 -3 -4 -17 13 -22 21 -14 21 2 0 10 -8 17 -17z m44
-41 c-3 -3 -11 0 -18 7 -9 10 -8 11 6 5 10 -3 15 -9 12 -12z m79 -78 c3 -8 2
-12 -4 -9 -6 3 -10 10 -10 16 0 14 7 11 14 -7z"/>
        <path d="M5425 2510 c10 -11 20 -20 23 -20 3 0 -3 9 -13 20 -10 11 -20 20 -23
20 -3 0 3 -9 13 -20z"/>
    </g>
</svg>
