<svg width="350" height="60" viewBox="0 0 92.604167 15.875" xmlns="http://www.w3.org/2000/svg"><defs><clipPath id="a"><rect x="113.88" y="158.69" width="81.188" height="38.318" fill="#191986" opacity=".458" stroke="#fff" stroke-opacity=".53991" stroke-width=".33263"/></clipPath><clipPath id="b"><rect x="60.593" y="35.593" width="258.47" height="247.88" fill="#e2fcfc" opacity=".458" stroke="#fff" stroke-opacity=".53991"/></clipPath></defs><g transform="translate(0 -281.12)" fill-rule="evenodd"><path transform="matrix(1.071 0 0 1.071 -114.21 105.09)" d="m133.11 124.66-2.961 2.9456 15.242 15.242 15.242 15.242 2.9543-2.9546 2.9546-2.9546-15.236-15.233-15.236-15.233-2.9607 2.9456m-6.432 47.32v3.7042h0.87974l0.023-3.2412 0.0233-3.2412 0.73157 2.9104c0.4027 1.6007 0.77127 3.0591 0.81942 3.2412l0.0873 0.33073h1.4925v-7.4083h-0.88186l-7e-3 3.1528-7e-3 3.153-0.80169-3.153-0.80142-3.1528h-1.5573v3.7042m22.93-0.78872c0 4.1341 0.16351 4.4939 2.0389 4.4924 1.9026-2e-3 2.0471-0.30904 2.0587-4.3873l9e-3 -3.0205h-0.93133v6.0754l-0.20982 0.24421c-0.33999 0.39529-1.3515 0.42281-1.7275 0.0468l-0.26746-0.26749v-6.0989h-0.97023v2.9154m6.35-2.5186v0.39687h0.97023v5.8208h-0.97023v0.79375h2.8223v-0.79375h-0.88186v-5.8208h0.88186v-0.79375h-2.8223v0.39688m10.76 0v0.39687h1.6756v6.6146h0.97022v-6.6146h1.6756v-0.79375h-4.3214v0.39688m-33.382 1.8262c-1.0422 0.36407-1.3512 2.649-0.43021 3.1832 0.0881 0.0511 0.12171 0.27517 0.12171 0.81571v0.74533h1.0904c1.306 0 1.5555 0.11325 1.5555 0.70565 0 0.61542-0.22674 0.70538-1.7759 0.70538h-1.311v0.8083l1.5214-0.0291c2.0413-0.0394 2.4474-0.28575 2.4474-1.4846 0-1.0327-0.46381-1.4288-1.738-1.4846-0.79454-0.0347-0.81968-0.0423-0.81968-0.2458 0-0.20056 0.027-0.21008 0.59875-0.21008 1.4023 0 1.7791-0.49901 1.7812-2.359l1e-3 -1.2568-1.3891 7e-3c-0.76385 4e-3 -1.5081 0.0487-1.6536 0.0995m5.5592 1.133c0.89826 1.4901 0.90461 1.1412-0.05 2.7038l-0.79666 1.3044 0.41064 0.0272c0.58023 0.0386 0.58261 0.0368 1.1401-0.94827 0.27675-0.48868 0.53234-0.90646 0.56753-0.92842 0.0354-0.022 0.2995 0.38523 0.58711 0.90488l0.52281 0.94456 0.55192 0.0262 0.55219 0.0265-0.8464-1.384-0.84614-1.3838 0.75565-1.2441 0.75565-1.2443-0.40772-0.0273c-0.56409-0.0378-0.54981-0.0497-1.0864 0.89799l-0.47996 0.84773-0.39026-0.68289c-0.66622-1.166-0.57308-1.0795-1.1626-1.0795h-0.5244l0.74692 1.2393m34.679-1.1184c-0.81518 0.30321-0.94298 0.64453-0.94536 2.5281-3e-3 2.2725 0.24553 2.5985 1.9823 2.5985 1.7486 0 1.9404-0.25718 1.9404-2.6016 0-1.8338-0.0545-2.0325-0.65987-2.4072-0.39052-0.24183-1.7923-0.313-2.3175-0.11774m4.8898 2.0177c0.032 2.459 0.0677 2.5956 0.77602 2.9546 0.43445 0.22013 1.3777 0.27437 1.8238 0.10477 0.17409-0.0661 0.25585-0.0661 0.27781 0 0.0172 0.0513 0.22622 0.0937 0.46487 0.0937h0.43366v-5.2917h-0.97023v2.0725c0 2.4707 0.0172 2.4254-0.91625 2.4254-0.99404 0-0.97472 0.046-1.0078-2.4175l-0.028-2.0804h-0.88159l0.0278 2.1386m5.8044-1.7418v0.39688h0.79375v3.7042h-0.79375v0.79375h2.8223v-0.79375h-1.1464v-1.6357c0-2.0481 0.0111-2.0685 1.1425-2.0685h0.70961v-0.79375h-0.66437c-0.38047 0-0.79481 0.0545-0.97023 0.12779-0.26696 0.11139-0.30585 0.11139-0.30585 0 0-0.10213-0.15928-0.12779-0.79375-0.12779h-0.79375v0.39687m-48.771 1.1946c0 1.079-0.13388 1.2306-1.0866 1.2306-0.95541 0-1.1181-0.14763-1.1181-1.0141 0-0.91017 0.13706-1.0142 1.3348-1.0142h0.86995v0.79772m39.804-0.69639c0.31062 0.16352 0.322 0.22596 0.32358 1.7664 2e-3 1.8383-0.0442 1.9053-1.2393 1.819-0.80963-0.0587-0.82683-0.0926-0.8599-1.6841-0.0302-1.4441 0.0328-1.7809 0.35719-1.9114 0.2876-0.11536 1.1922-0.10901 1.4184 0.01" clip-path="url(#a)" fill="#1b1f3b"/><g transform="matrix(.070183 0 0 .070183 -5.868 277.23)"><path d="m107.98 132.82-11.191 11.133 57.607 57.606 57.607 57.606 11.166-11.167 11.167-11.167-57.583-57.572-57.583-57.572-11.19 11.133m-24.31 178.85v14h3.325l0.087-12.25 0.088-12.25 2.765 11c1.522 6.05 2.915 11.562 3.097 12.25l0.33 1.25h5.641v-28h-3.333l-0.028 11.916-0.027 11.917-3.03-11.917-3.029-11.916h-5.886v14m86.666-2.981c0 15.625 0.618 16.985 7.706 16.979 7.191-6e-3 7.737-1.168 7.781-16.582l0.033-11.416h-3.52v22.962l-0.793 0.923c-1.285 1.494-5.108 1.598-6.529 0.177l-1.011-1.011v-23.051h-3.667v11.019m24-9.519v1.5h3.667v22h-3.667v3h10.667v-3h-3.333v-22h3.333v-3h-10.667v1.5m40.667 0v1.5h6.333v25h3.667v-25h6.333v-3h-16.333v1.5m-126.17 6.902c-3.939 1.376-5.107 10.012-1.626 12.031 0.333 0.193 0.46 1.04 0.46 3.083v2.817h4.121c4.936 0 5.879 0.428 5.879 2.667 0 2.326-0.857 2.666-6.712 2.666h-4.955v3.055l5.75-0.11c7.715-0.149 9.25-1.08 9.25-5.611 0-3.903-1.753-5.4-6.569-5.611-3.003-0.131-3.098-0.16-3.098-0.929 0-0.758 0.102-0.794 2.263-0.794 5.3 0 6.724-1.886 6.732-8.916l5e-3 -4.75-5.25 0.026c-2.887 0.014-5.7 0.184-6.25 0.376m21.011 4.282c3.395 5.632 3.419 4.313-0.189 10.219l-3.011 4.93 1.552 0.103c2.193 0.146 2.202 0.139 4.309-3.584 1.046-1.847 2.012-3.426 2.145-3.509 0.134-0.083 1.132 1.456 2.219 3.42l1.976 3.57 2.086 0.099 2.087 0.1-3.199-5.231-3.198-5.23 2.856-4.702 2.856-4.703-1.541-0.103c-2.132-0.143-2.078-0.188-4.106 3.394l-1.814 3.204-1.475-2.581c-2.518-4.407-2.166-4.08-4.394-4.08h-1.982l2.823 4.684m131.07-4.227c-3.081 1.146-3.564 2.436-3.573 9.555-0.012 8.589 0.928 9.821 7.492 9.821 6.609 0 7.334-0.972 7.334-9.833 0-6.931-0.206-7.682-2.494-9.098-1.476-0.914-6.774-1.183-8.759-0.445m18.481 7.626c0.121 9.294 0.256 9.81 2.933 11.167 1.642 0.832 5.207 1.037 6.893 0.396 0.658-0.25 0.967-0.25 1.05 0 0.065 0.194 0.855 0.354 1.757 0.354h1.639v-20h-3.667v7.833c0 9.338 0.065 9.167-3.463 9.167-3.757 0-3.684 0.174-3.809-9.137l-0.106-7.863h-3.332l0.105 8.083m21.938-6.583v1.5h3v14h-3v3h10.667v-3h-4.333v-6.182c0-7.741 0.042-7.818 4.318-7.818h2.682v-3h-2.511c-1.438 0-3.004 0.206-3.667 0.483-1.009 0.421-1.156 0.421-1.156 0 0-0.386-0.602-0.483-3-0.483h-3v1.5m-184.33 4.515c0 4.078-0.506 4.651-4.107 4.651-3.611 0-4.226-0.558-4.226-3.833 0-3.44 0.518-3.833 5.045-3.833h3.288v3.015m150.44-2.632c1.174 0.618 1.217 0.854 1.223 6.676 6e-3 6.948-0.167 7.201-4.684 6.875-3.06-0.222-3.125-0.35-3.25-6.365-0.114-5.458 0.124-6.731 1.35-7.224 1.087-0.436 4.506-0.412 5.361 0.038" clip-path="url(#b)" fill="#191986"/><path d="m172.67 67.834-11.164 11.168 57.711 57.711 57.712 57.711 11.221-11.278 11.221-11.279-57.6-57.6c-31.68-31.68-57.676-57.6-57.769-57.6-0.092 0-5.192 5.025-11.332 11.167m-39.083 47.862c5.196 5.269 4.943 4.438 2.167 7.116l-2.25 2.171 57.75 57.758 57.75 57.758 11.247-11.247 11.248-11.248-4.491-4.5-4.491-4.5 2.347-2.419c1.29-1.33-2.6 2.575-8.646 8.679-6.046 6.103-11.191 11.053-11.433 11-0.242-0.054-26.354-25.961-58.027-57.573-31.673-31.611-55.6-55.459-53.171-52.995m-30.504 39.725-2.405 2.421 56.913 56.829 56.913 56.829-56.751-56.835-56.752-56.835 2.416-2.415c1.328-1.328 2.337-2.415 2.242-2.415-0.094 0-1.254 1.089-2.576 2.421m-3.926 156.25c0 7.791 0.043 10.979 0.097 7.083 0.053-3.896 0.053-10.271 0-14.167-0.054-3.895-0.097-0.708-0.097 7.084m-12.153 2c0 6.661 0.072 12.039 0.159 11.952 0.224-0.224 0.247-23.658 0.024-23.881-0.101-0.1-0.183 5.268-0.183 11.929m173.8 1.833c0 2.75 0.052 3.831 0.115 2.401 0.062-1.429 0.062-3.679-1e-3 -5-0.063-1.32-0.114-0.151-0.114 2.599m-143.39 11.167c0 0.641 0.068 0.904 0.152 0.583s0.084-0.846 0-1.167-0.152-0.058-0.152 0.584" fill="#c4ecf4"/><path d="m140.56 99.944-11.275 11.278 57.53 57.473c31.642 31.609 57.728 57.515 57.969 57.568 0.404 0.09 22.22-21.719 22.22-22.212 0-0.12-25.913-26.131-57.584-57.802l-57.585-57.584-11.275 11.279" fill="#5cc4f4"/><path d="m108.66 131.92-10.497 10.583 10.499-10.417 10.499-10.417 57.667 57.584 57.667 57.583-57.666-57.75c-31.717-31.762-57.668-57.75-57.669-57.75s-4.726 4.763-10.5 10.584m-7.58 16.587 4.58 4.67-2.33 2.33-2.329 2.33 57.574 57.583c31.666 31.671 57.657 57.583 57.758 57.583 0.1 0 5.197-5.028 11.326-11.174l11.145-11.175-4.481-4.49-4.481-4.49 2.323-2.419c1.278-1.33-2.738 2.606-8.924 8.747l-11.248 11.165-57.747-57.665c-31.761-31.716-55.686-55.564-53.166-52.995m104.01 150.66c3e-3 0.916 0.068 1.252 0.144 0.745 0.077-0.507 0.075-1.257-4e-3 -1.667s-0.142 5e-3 -0.14 0.922m77.714 13.833c0 4.125 0.048 5.813 0.107 3.75 0.058-2.062 0.058-5.437 0-7.5-0.059-2.062-0.107-0.375-0.107 3.75m31.953-5.833c3e-3 0.916 0.067 1.252 0.144 0.745 0.076-0.507 0.074-1.257-5e-3 -1.667s-0.141 5e-3 -0.139 0.922m-209.67 5.166c0 0.825 0.065 1.163 0.144 0.75 0.08-0.412 0.08-1.087 0-1.5-0.079-0.412-0.144-0.075-0.144 0.75m100 11.834c3e-3 0.916 0.068 1.252 0.144 0.745 0.077-0.507 0.075-1.257-4e-3 -1.667s-0.142 5e-3 -0.14 0.922" fill="#8c8cd4"/><path d="m168.44 90.132c-1.133 1.136-2.108 2.238-2.166 2.448-0.076 0.274 106.08 106.91 114.15 114.67l0.927 0.89 11.282-11.278 11.283-11.279-4.499-4.494-4.499-4.494 2.29-2.37c1.259-1.304-2.789 2.707-8.998 8.913l-11.287 11.283-53.213-53.179-53.212-53.179-2.061 2.066m23.894 39.035c22.275 22.275 40.574 40.5 40.666 40.5s-18.058-18.225-40.332-40.5c-22.275-22.275-40.574-40.5-40.666-40.5s18.058 18.225 40.332 40.5m-84.668 3.416-11.165 11.25 11.25-11.164c6.188-6.141 11.25-11.204 11.25-11.25 0-0.236-0.959 0.709-11.335 11.164m58.668 25.584c3.205 3.208 5.902 5.833 5.993 5.833 0.092 0-2.455-2.625-5.659-5.833-3.205-3.209-5.902-5.834-5.993-5.834-0.092 0 2.455 2.625 5.659 5.834m87.667 32.666c7.24 7.242 13.239 13.167 13.33 13.167 0.092 0-5.757-5.925-12.997-13.167-7.24-7.241-13.238-13.166-13.33-13.166s5.757 5.925 12.997 13.166m12.995 22.584c4.176 4.257 4.672 4.734 4.672 4.495 0-0.048-2.063-2.111-4.584-4.583l-4.583-4.496 4.495 4.584m-32.666 32.666c4.176 4.258 4.671 4.735 4.671 4.496 0-0.049-2.062-2.111-4.583-4.584l-4.584-4.495 4.496 4.583" fill="#e4f4fc"/></g></g></svg>
