<svg id="svg" version="1.1" viewBox="0 0 225 225" xmlns="http://www.w3.org/2000/svg"><defs><clipPath id="a"><rect x="60.593" y="35.593" width="258.47" height="247.88" fill="#e2fcfc" opacity=".458" stroke="#fff" stroke-opacity=".53991"/></clipPath></defs><g id="svgg" transform="translate(0,-175)"><path d="m0 200v200h400v-400h-400v200m241.83-85.671 57.662 57.662-2.286 2.304-2.285 2.303 4.499 4.494 4.499 4.494-11.283 11.279-11.282 11.278-0.927-0.89c-8.367-8.043-114.23-114.4-114.15-114.69 0.061-0.219 0.998-1.259 2.083-2.311 2.37-2.298 2.354-2.132 0.389-4.005-0.871-0.829-2.856-2.801-4.412-4.381l-2.829-2.874 11.16-11.163c6.139-6.141 11.237-11.164 11.329-11.164 0.093 0 26.117 25.948 57.831 57.662m-32.009 32.014 57.643 57.677-2.396 2.413-2.397 2.413 4.5 4.49 4.5 4.491-11.389 11.392-11.388 11.392-57.613-57.615c-31.687-31.688-57.613-57.734-57.613-57.88s1.009-1.283 2.243-2.526l2.243-2.261-4.489-4.499-4.49-4.498 7.163-7.211c3.94-3.966 8.963-9.053 11.163-11.306 2.2-2.252 4.152-4.107 4.339-4.122 0.186-0.014 26.277 25.928 57.981 57.65m-32.907 32.736 57.746 57.746-2.328 2.344-2.328 2.343 4.5 4.491 4.5 4.491-11.417 11.42-11.417 11.421-57.748-57.747-57.747-57.746 2.407-2.423 2.406-2.423-4.41-4.419c-2.426-2.431-4.41-4.566-4.41-4.746 0-0.325 22.009-22.498 22.331-22.498 0.092 0 26.154 25.986 57.915 57.746m-86.99 119.67c0.158 0.596 1.477 5.789 2.932 11.541l2.645 10.458 0.088-11.541 0.087-11.541h3.658v28h-6.176l-2.88-11.417-2.88-11.417-0.032 11.417-0.032 11.417h-3.666v-28h5.968l0.288 1.083m84.077 10.1c0 12.774 0.015 12.859 2.395 13.5 1.927 0.519 4.001 0.148 4.976-0.89l0.796-0.846 0.099-11.474 0.1-11.473h3.634l-0.015 11.416c-0.02 15.666-0.446 16.569-7.818 16.569-7.4 0-7.834-0.912-7.834-16.475v-11.51h3.667v11.183m31.333-9.683v1.5h-3.666v22h3.666v3h-11v-3h3.667v-22h-3.667v-3h11v1.5m46 0v1.5h-6.333v25h-3.667v-25h-6.333v-3h16.333v1.5m-130.67 10.416c-0.016 7.6-1.495 9.75-6.708 9.75-2.57 0-2.618 0.016-2.618 0.834 0 0.823 0.033 0.833 2.844 0.833 5.48 0 7.645 2.346 6.752 7.314-0.601 3.341-2.189 4.019-9.418 4.019h-5.511v-3l4.417-0.018c5.993-0.026 6.719-0.292 6.849-2.511 0.142-2.439-0.147-2.588-5.304-2.749l-4.295-0.134v-2.5c0-2.294-0.081-2.592-0.986-3.623-1.284-1.461-1.793-3.433-1.598-6.188 0.352-4.973 1.983-5.943 9.988-5.943h5.596l-8e-3 3.916m12.369-0.73 1.765 3.186 0.78-1.27c0.429-0.698 1.26-2.132 1.847-3.186l1.067-1.916h4.14l-2.922 4.75-2.923 4.75 3.109 5.135c1.71 2.824 3.109 5.186 3.109 5.25 0 0.063-0.951 0.115-2.113 0.115h-2.114l-1.917-3.501c-1.054-1.926-2.039-3.425-2.189-3.333-0.15 0.093-1.14 1.668-2.2 3.501l-1.928 3.333h-1.936c-2.389 0-2.49 0.517 1.051-5.367l2.987-4.964-2.518-4.251c-1.385-2.338-2.66-4.514-2.833-4.835-0.283-0.528-0.109-0.583 1.83-0.583h2.143l1.765 3.186m136.84-2.332c2.244 1.678 2.294 1.875 2.294 9.146 0 8.987-0.524 9.75-6.827 9.945-7.151 0.222-8.113-0.956-8.12-9.945-5e-3 -6.924 0.391-8.208 2.883-9.366 2.031-0.943 8.406-0.8 9.77 0.22m13.127 6.927c0 9.251-0.078 9.052 3.564 9.052 3.456 0 3.436 0.053 3.436-9.204v-7.629h3.667v20h-1.667c-0.917 0-1.667-0.147-1.667-0.325 0-0.212-0.299-0.212-0.855 0-1.602 0.609-6.031 0.396-7.516-0.362-2.394-1.221-2.613-2.172-2.621-11.397l-8e-3 -7.916h3.667v7.781m24.667-7.436c0 0.238 0.2 0.238 0.644 0 0.355-0.19 2.005-0.345 3.667-0.345h3.022v2.931l-2.824 0.118c-4.347 0.181-4.317 0.129-4.447 7.792l-0.104 6.159h4.56v3h-10.852v-3h2.667v-14h-2.667v-3h3.167c1.961 0 3.167 0.131 3.167 0.345m-197.26 3.031c-2.69 0.776-2.432 6.231 0.33 6.975 4.283 1.153 6.05-0.086 6.217-4.36l0.116-2.991-2.783 0.03c-1.531 0.016-3.276 0.172-3.88 0.346m152.43-0.156c-1.738 0.474-1.833 0.824-1.833 6.78 0 6.831 5e-3 6.841 3.91 6.819 3.688-0.021 3.757-0.145 3.757-6.819 0-6.382-0.099-6.594-3.167-6.817-1.1-0.08-2.3-0.063-2.667 0.037" fill="none"/><g transform="translate(-86.667 121.61)" fill-rule="evenodd"><path d="m107.98 132.82-11.191 11.133 57.607 57.606 57.607 57.606 11.166-11.167 11.167-11.167-57.583-57.572-57.583-57.572-11.19 11.133m-24.31 178.85v14h3.325l0.087-12.25 0.088-12.25 2.765 11c1.522 6.05 2.915 11.562 3.097 12.25l0.33 1.25h5.641v-28h-3.333l-0.028 11.916-0.027 11.917-3.03-11.917-3.029-11.916h-5.886v14m86.666-2.981c0 15.625 0.618 16.985 7.706 16.979 7.191-6e-3 7.737-1.168 7.781-16.582l0.033-11.416h-3.52v22.962l-0.793 0.923c-1.285 1.494-5.108 1.598-6.529 0.177l-1.011-1.011v-23.051h-3.667v11.019m24-9.519v1.5h3.667v22h-3.667v3h10.667v-3h-3.333v-22h3.333v-3h-10.667v1.5m40.667 0v1.5h6.333v25h3.667v-25h6.333v-3h-16.333v1.5m-126.17 6.902c-3.939 1.376-5.107 10.012-1.626 12.031 0.333 0.193 0.46 1.04 0.46 3.083v2.817h4.121c4.936 0 5.879 0.428 5.879 2.667 0 2.326-0.857 2.666-6.712 2.666h-4.955v3.055l5.75-0.11c7.715-0.149 9.25-1.08 9.25-5.611 0-3.903-1.753-5.4-6.569-5.611-3.003-0.131-3.098-0.16-3.098-0.929 0-0.758 0.102-0.794 2.263-0.794 5.3 0 6.724-1.886 6.732-8.916l5e-3 -4.75-5.25 0.026c-2.887 0.014-5.7 0.184-6.25 0.376m21.011 4.282c3.395 5.632 3.419 4.313-0.189 10.219l-3.011 4.93 1.552 0.103c2.193 0.146 2.202 0.139 4.309-3.584 1.046-1.847 2.012-3.426 2.145-3.509 0.134-0.083 1.132 1.456 2.219 3.42l1.976 3.57 2.086 0.099 2.087 0.1-3.199-5.231-3.198-5.23 2.856-4.702 2.856-4.703-1.541-0.103c-2.132-0.143-2.078-0.188-4.106 3.394l-1.814 3.204-1.475-2.581c-2.518-4.407-2.166-4.08-4.394-4.08h-1.982l2.823 4.684m131.07-4.227c-3.081 1.146-3.564 2.436-3.573 9.555-0.012 8.589 0.928 9.821 7.492 9.821 6.609 0 7.334-0.972 7.334-9.833 0-6.931-0.206-7.682-2.494-9.098-1.476-0.914-6.774-1.183-8.759-0.445m18.481 7.626c0.121 9.294 0.256 9.81 2.933 11.167 1.642 0.832 5.207 1.037 6.893 0.396 0.658-0.25 0.967-0.25 1.05 0 0.065 0.194 0.855 0.354 1.757 0.354h1.639v-20h-3.667v7.833c0 9.338 0.065 9.167-3.463 9.167-3.757 0-3.684 0.174-3.809-9.137l-0.106-7.863h-3.332l0.105 8.083m21.938-6.583v1.5h3v14h-3v3h10.667v-3h-4.333v-6.182c0-7.741 0.042-7.818 4.318-7.818h2.682v-3h-2.511c-1.438 0-3.004 0.206-3.667 0.483-1.009 0.421-1.156 0.421-1.156 0 0-0.386-0.602-0.483-3-0.483h-3v1.5m-184.33 4.515c0 4.078-0.506 4.651-4.107 4.651-3.611 0-4.226-0.558-4.226-3.833 0-3.44 0.518-3.833 5.045-3.833h3.288v3.015m150.44-2.632c1.174 0.618 1.217 0.854 1.223 6.676 6e-3 6.948-0.167 7.201-4.684 6.875-3.06-0.222-3.125-0.35-3.25-6.365-0.114-5.458 0.124-6.731 1.35-7.224 1.087-0.436 4.506-0.412 5.361 0.038" clip-path="url(#a)" fill="#191986"/><path d="m172.67 67.834-11.164 11.168 57.711 57.711 57.712 57.711 11.221-11.278 11.221-11.279-57.6-57.6c-31.68-31.68-57.676-57.6-57.769-57.6-0.092 0-5.192 5.025-11.332 11.167m-39.083 47.862c5.196 5.269 4.943 4.438 2.167 7.116l-2.25 2.171 57.75 57.758 57.75 57.758 11.247-11.247 11.248-11.248-4.491-4.5-4.491-4.5 2.347-2.419c1.29-1.33-2.6 2.575-8.646 8.679-6.046 6.103-11.191 11.053-11.433 11-0.242-0.054-26.354-25.961-58.027-57.573-31.673-31.611-55.6-55.459-53.171-52.995m-30.504 39.725-2.405 2.421 56.913 56.829 56.913 56.829-56.751-56.835-56.752-56.835 2.416-2.415c1.328-1.328 2.337-2.415 2.242-2.415-0.094 0-1.254 1.089-2.576 2.421m-3.926 156.25c0 7.791 0.043 10.979 0.097 7.083 0.053-3.896 0.053-10.271 0-14.167-0.054-3.895-0.097-0.708-0.097 7.084m-12.153 2c0 6.661 0.072 12.039 0.159 11.952 0.224-0.224 0.247-23.658 0.024-23.881-0.101-0.1-0.183 5.268-0.183 11.929m173.8 1.833c0 2.75 0.052 3.831 0.115 2.401 0.062-1.429 0.062-3.679-1e-3 -5-0.063-1.32-0.114-0.151-0.114 2.599m-143.39 11.167c0 0.641 0.068 0.904 0.152 0.583s0.084-0.846 0-1.167-0.152-0.058-0.152 0.584" fill="#c4ecf4"/><path d="m140.56 99.944-11.275 11.278 57.53 57.473c31.642 31.609 57.728 57.515 57.969 57.568 0.404 0.09 22.22-21.719 22.22-22.212 0-0.12-25.913-26.131-57.584-57.802l-57.585-57.584-11.275 11.279" fill="#5cc4f4"/><path d="m108.66 131.92-10.497 10.583 10.499-10.417 10.499-10.417 57.667 57.584 57.667 57.583-57.666-57.75c-31.717-31.762-57.668-57.75-57.669-57.75s-4.726 4.763-10.5 10.584m-7.58 16.587 4.58 4.67-2.33 2.33-2.329 2.33 57.574 57.583c31.666 31.671 57.657 57.583 57.758 57.583 0.1 0 5.197-5.028 11.326-11.174l11.145-11.175-4.481-4.49-4.481-4.49 2.323-2.419c1.278-1.33-2.738 2.606-8.924 8.747l-11.248 11.165-57.747-57.665c-31.761-31.716-55.686-55.564-53.166-52.995m104.01 150.66c3e-3 0.916 0.068 1.252 0.144 0.745 0.077-0.507 0.075-1.257-4e-3 -1.667s-0.142 5e-3 -0.14 0.922m77.714 13.833c0 4.125 0.048 5.813 0.107 3.75 0.058-2.062 0.058-5.437 0-7.5-0.059-2.062-0.107-0.375-0.107 3.75m31.953-5.833c3e-3 0.916 0.067 1.252 0.144 0.745 0.076-0.507 0.074-1.257-5e-3 -1.667s-0.141 5e-3 -0.139 0.922m-209.67 5.166c0 0.825 0.065 1.163 0.144 0.75 0.08-0.412 0.08-1.087 0-1.5-0.079-0.412-0.144-0.075-0.144 0.75m100 11.834c3e-3 0.916 0.068 1.252 0.144 0.745 0.077-0.507 0.075-1.257-4e-3 -1.667s-0.142 5e-3 -0.14 0.922" fill="#8c8cd4"/><path d="m168.44 90.132c-1.133 1.136-2.108 2.238-2.166 2.448-0.076 0.274 106.08 106.91 114.15 114.67l0.927 0.89 11.282-11.278 11.283-11.279-4.499-4.494-4.499-4.494 2.29-2.37c1.259-1.304-2.789 2.707-8.998 8.913l-11.287 11.283-53.213-53.179-53.212-53.179-2.061 2.066m23.894 39.035c22.275 22.275 40.574 40.5 40.666 40.5s-18.058-18.225-40.332-40.5c-22.275-22.275-40.574-40.5-40.666-40.5s18.058 18.225 40.332 40.5m-84.668 3.416-11.165 11.25 11.25-11.164c6.188-6.141 11.25-11.204 11.25-11.25 0-0.236-0.959 0.709-11.335 11.164m58.668 25.584c3.205 3.208 5.902 5.833 5.993 5.833 0.092 0-2.455-2.625-5.659-5.833-3.205-3.209-5.902-5.834-5.993-5.834-0.092 0 2.455 2.625 5.659 5.834m87.667 32.666c7.24 7.242 13.239 13.167 13.33 13.167 0.092 0-5.757-5.925-12.997-13.167-7.24-7.241-13.238-13.166-13.33-13.166s5.757 5.925 12.997 13.166m12.995 22.584c4.176 4.257 4.672 4.734 4.672 4.495 0-0.048-2.063-2.111-4.584-4.583l-4.583-4.496 4.495 4.584m-32.666 32.666c4.176 4.258 4.671 4.735 4.671 4.496 0-0.049-2.062-2.111-4.583-4.584l-4.584-4.495 4.496 4.583" fill="#e4f4fc"/></g></g></svg>
